<?xml version="1.0" standalone="no"?>
<!DOCTYPE svg PUBLIC "-//W3C//DTD SVG 20010904//EN"
 "http://www.w3.org/TR/2001/REC-SVG-20010904/DTD/svg10.dtd">
<svg version="1.0" xmlns="http://www.w3.org/2000/svg"
 width="460.829392pt" height="597.775813pt" viewBox="0 0 460.829392 597.775813"
 preserveAspectRatio="xMidYMid meet">

<g transform="translate(-153.170608,682.809399) scale(0.100000,-0.100000)"
fill="#000000" stroke="none">
<path d="M3321 6821 c-13 -8 -15 -131 -15 -843 l-1 -833 -885 -5 -885 -5 -3
-548 c-2 -433 0 -549 10 -552 7 -3 407 -6 888 -7 l875 -3 3 -1581 2 -1581 83
-6 c118 -10 950 -8 964 1 10 6 13 339 15 1588 l3 1579 870 2 c479 2 876 3 883
3 9 0 12 118 12 555 l0 555 -885 0 -885 0 0 834 c0 657 -3 837 -12 843 -19 12
-1020 16 -1037 4z m841 -658 c2 -454 2 -463 6 -899 l2 -280 34 -37 34 -37 834
0 835 0 6 -315 c3 -173 4 -322 0 -330 -5 -14 -101 -16 -836 -15 l-830 1 -38
-38 -38 -38 -5 -465 c-3 -256 -5 -954 -5 -1553 l-1 -1087 -317 2 -318 3 -3
1543 -2 1544 -36 44 -36 44 -842 2 -841 3 0 328 0 328 844 -1 844 -1 34 33 33
32 0 808 0 808 320 0 320 0 2 -427z"/>
</g>
</svg>
